<svg xmlns="http://www.w3.org/2000/svg" version="1.1" xmlns:xlink="http://www.w3.org/1999/xlink" xmlns:svgjs="http://svgjs.dev/svgjs" width="128" height="128" viewBox="0 0 128 128"><g transform="matrix(0.6280487804878049,0,0,0.6280487804878049,23.805249188789368,12.5)"><svg viewBox="0 0 175 225" data-background-color="#000000" preserveAspectRatio="xMidYMid meet" height="164" width="128" xmlns="http://www.w3.org/2000/svg" xmlns:xlink="http://www.w3.org/1999/xlink"><g id="tight-bounds" transform="matrix(1,0,0,1,0.0008079276588688344,0)"><svg viewBox="0 0 175 225" height="225" width="175"><g><svg></svg></g><g><svg viewBox="0 0 175 225" height="225" width="175"><g><path transform="translate(-3.44567,21.55585) scale(0.00303,0.00303)" d="M25167 8301c221 0 400 179 400 400 0 221-179 400-400 400h-3824l-2753 2753c-156 156-409 156-566 0-156-156-156-409 0-566l2188-2188h-6475c-1847 0-3071 431-3819 1301-760 885-1068 2254-1068 4110 0 11 0 22-1 33l34 5884 2356-2356c156-156 409-156 566 0 156 156 156 409 0 566l-2915 2915c33 5746 31 11443-2 17189 4087 4041 8117 8068 12157 12154h4070c221 0 400 179 400 400 0 221-179 400-400 400h-3279l4160 4208 1-1c1313 1313 2498 2062 3660 2151 1146 87 2316-474 3622-1779l4579-4579h-3323c-221 0-400-179-400-400 0-221 179-400 400-400h4123l2666-2666c156-156 409-156 566 0 156 156 156 409 0 566l-2101 2101h6475c1847 0 3071-431 3819-1301 760-885 1068-2254 1068-4110h2l-34-5917-2568 2568c-156 156-409 156-566 0-156-156-156-409 0-566l3127-3127c-33-5746-31-11443 2-17189-4087-4041-8117-8068-12157-12154h-4193c-221 0-400-179-400-400 0-221 179-400 400-400h3402l-4141-4189c-7-6-13-12-20-18-1313-1313-2498-2062-3660-2151-1146-87-2316 474-3622 1779l-4579 4579h3024zM13737 8301h7275l5144-5144c1483-1483 2856-2116 4247-2010 1374 104 2719 934 4167 2382 8 8 15 15 22 23l4695 4749h6977c2096 0 3515 524 4425 1583 898 1045 1261 2582 1261 4629 0 13-1 25-2 37l-36 6373 4559 4508 1-1c1448 1448 2278 2792 2382 4167 106 1391-528 2764-2010 4247l-4934 4934 38 6710h2c0 2047-364 3584-1261 4629-910 1059-2329 1583-4425 1583h-7275l-5144 5144c-1483 1483-2856 2116-4247 2010-1374-104-2719-934-4167-2382l1-1-4718-4772h-6977c-2096 0-3515-524-4425-1583-898-1045-1261-2582-1261-4629h2l37-6410-4537-4485c-8-7-16-14-23-22-1448-1448-2278-2792-2382-4167-106-1391 528-2764 2010-4247l4934-4934-38-6672c-1-12-2-25-2-37 0-2047 364-3584 1261-4629 910-1059 2329-1583 4425-1583zM8141 30000l-44-7653-4374 4374c-1305 1305-1866 2476-1779 3622 88 1162 838 2348 2151 3660 6 6 13 13 18 20l3983 3937 45-7961zM8882 39860l-32 5627h2c0 1857 308 3226 1068 4110 748 871 1972 1301 3819 1301h6186l-5380-5442-5662-5597zM46264 9101h-6186l5380 5442 5662 5597 32-5594c-1-11-1-22-1-33 0-1857-308-3226-1068-4110-748-871-1972-1301-3819-1301zM51906 22039l-45 7961 44 7653 4374-4374c1305-1305 1866-2476 1779-3622-88-1163-838-2348-2151-3660l1-1-4002-3956z" fill="#000000" fill-rule="nonzero" stroke="none" stroke-width="1" stroke-linecap="butt" stroke-linejoin="miter" stroke-miterlimit="10" stroke-dasharray="" stroke-dashoffset="0" font-family="none" font-weight="none" font-size="none" text-anchor="none" style="mix-blend-mode: normal" data-fill-palette-color="tertiary"></path></g><g transform="matrix(1,0,0,1,70.790825,100.034425)"><svg viewBox="0 0 33.418350000000004 24.931150000000002" height="24.931150000000002" width="33.418350000000004"><g><svg viewBox="0 0 33.418350000000004 24.931150000000002" height="24.931150000000002" width="33.418350000000004"><g><svg viewBox="0 0 33.418350000000004 24.931150000000002" height="24.931150000000002" width="33.418350000000004"><g><svg viewBox="0 0 33.418350000000004 24.931150000000002" height="24.931150000000002" width="33.418350000000004"><g><svg viewBox="0 0 33.418350000000004 24.931150000000002" height="24.931150000000002" width="33.418350000000004"><g><svg viewBox="0 0 33.418350000000004 24.931150000000002" height="24.931150000000002" width="33.418350000000004"><g><svg xmlns:dc="http://purl.org/dc/elements/1.1/" xmlns:cc="http://creativecommons.org/ns#" xmlns:rdf="http://www.w3.org/1999/02/22-rdf-syntax-ns#" xmlns:svg="http://www.w3.org/2000/svg" xmlns="http://www.w3.org/2000/svg" xmlns:sodipodi="http://sodipodi.sourceforge.net/DTD/sodipodi-0.dtd" xmlns:inkscape="http://www.inkscape.org/namespaces/inkscape" preserveAspectRatio="xMidYMid" viewBox="0 0 63 47" version="1.1" x="0" y="0" height="24.931150000000002" width="33.418350000000004" class="icon-icon-0" data-fill-palette-color="accent" id="icon-0"><path d="M9.5 0C4.253 0 0 4.253 0 9.5L0 37.5C0 42.747 4.253 47 9.5 47L53.5 47C58.747 47 63 42.747 63 37.5L63 9.5C63 4.253 58.747 0 53.5 0L9.5 0zM9.5 3L53.5 3C57.09 3 60 5.91 60 9.5L60 14 3 14 3 9.5C3 5.91 5.91 3 9.5 3zM12.75 6C11.187 6 9.906 7.281 9.906 8.844 9.906 10.407 11.187 11.656 12.75 11.656 14.313 11.656 15.594 10.407 15.594 8.844 15.594 7.281 14.313 6 12.75 6zM22.938 6C21.375 6 20.125 7.281 20.125 8.844 20.125 10.407 21.375 11.656 22.938 11.656 24.5 11.656 25.781 10.407 25.781 8.844 25.781 7.281 24.5 6 22.938 6zM32 6C30.437 6 29.156 7.281 29.156 8.844 29.156 10.407 30.437 11.656 32 11.656 33.562 11.656 34.813 10.407 34.813 8.844 34.813 7.281 33.562 6 32 6zM3 17L60 17 60 37.5C60 41.09 57.09 44 53.5 44L9.5 44C5.91 44 3 41.09 3 37.5L3 17zM17.969 23C17.523 23.05 17.122 23.294 16.875 23.688L8.656 36.688C8.214 37.388 8.424 38.34 9.125 38.781 9.373 38.939 9.632 39 9.906 39 10.403 39 10.902 38.764 11.188 38.313L17.344 28.563 18.625 35.781C18.707 36.236 18.997 36.628 19.406 36.844 19.813 37.059 20.297 37.063 20.719 36.875L25.625 34.688 31.438 38.719C31.787 38.964 32.21 39.064 32.625 38.969 33.04 38.87 33.389 38.594 33.594 38.219L39.719 26.938 51.594 38.563C52.184 39.141 53.139 39.154 53.719 38.563 54.299 37.971 54.312 37.017 53.719 36.438L40.406 23.406C40.07 23.078 39.592 22.936 39.125 23 38.66 23.07 38.256 23.336 38.031 23.75L31.75 35.313 26.625 31.75C26.192 31.449 25.637 31.381 25.156 31.594L21.25 33.375 19.594 24.219C19.485 23.609 19.013 23.119 18.406 23 18.254 22.971 18.117 22.983 17.969 23z" fill="#000000" fill-rule="evenodd" data-fill-palette-color="accent"></path></svg></g></svg></g></svg></g></svg></g></svg></g><g></g></svg></g></svg></g></svg></g><defs></defs></svg><rect width="175" height="225" fill="none" stroke="none" visibility="hidden"></rect></g></svg></g></svg>