<svg xmlns="http://www.w3.org/2000/svg" version="1.1" xmlns:xlink="http://www.w3.org/1999/xlink" xmlns:svgjs="http://svgjs.dev/svgjs" width="1000" height="750" viewBox="0 0 1000 750"><rect width="1000" height="750" fill="#ffffff"></rect><g transform="matrix(0.834,0,0,0.834,83,40.149)"><svg viewBox="0 0 448 360" data-background-color="#000000" preserveAspectRatio="xMidYMid meet" height="803" width="1000" xmlns="http://www.w3.org/2000/svg" xmlns:xlink="http://www.w3.org/1999/xlink"><g id="tight-bounds" transform="matrix(1,0,0,1,0,0)"><svg viewBox="0 0 448 360" height="360" width="448"><g><svg></svg></g><g><svg viewBox="0 0 448 360" height="360" width="448"><g><path xmlns="http://www.w3.org/2000/svg" d="M193.855 44.683c1.378 0 2.494 1.116 2.495 2.494 0 1.378-1.116 2.494-2.495 2.495h-23.846l-17.167 17.167c-0.973 0.973-2.551 0.973-3.53 0-0.973-0.973-0.973-2.551 0-3.529l13.644-13.645h-40.378c-11.518 0-19.151 2.688-23.815 8.113-4.739 5.519-6.66 14.056-6.66 25.63 0 0.069 0 0.137-0.006 0.206l0.212 36.692 14.692-14.692c0.973-0.973 2.551-0.973 3.53 0 0.973 0.973 0.973 2.551 0 3.53l-18.178 18.178c0.206 35.832 0.193 71.358-0.013 107.19 25.486 25.2 50.617 50.312 75.811 75.791h25.38c1.378 0 2.494 1.116 2.495 2.495 0 1.378-1.116 2.494-2.495 2.494h-20.448l25.942 26.241 0.006-0.006c8.188 8.188 15.577 12.859 22.824 13.413 7.146 0.543 14.442-2.956 22.586-11.093l28.555-28.555h-20.722c-1.378 0-2.494-1.116-2.495-2.494 0-1.378 1.116-2.494 2.495-2.495h25.711l16.625-16.625c0.973-0.973 2.551-0.973 3.529 0 0.973 0.973 0.973 2.551 0 3.53l-13.101 13.102h40.377c11.518 0 19.151-2.688 23.815-8.113 4.739-5.519 6.66-14.056 6.66-25.63h0.013l-0.212-36.898-16.014 16.014c-0.973 0.973-2.551 0.973-3.53 0-0.973-0.973-0.973-2.551 0-3.53l19.5-19.5c-0.206-35.832-0.193-71.358 0.013-107.19-25.486-25.2-50.617-50.312-75.811-75.791h-26.147c-1.378 0-2.494-1.116-2.495-2.495 0-1.378 1.116-2.494 2.495-2.494h21.215l-25.824-26.123c-0.044-0.037-0.081-0.075-0.124-0.112-8.188-8.188-15.577-12.859-22.824-13.413-7.146-0.543-14.442 2.956-22.586 11.093l-28.555 28.555h18.858zM122.578 44.683h45.367l32.078-32.078c9.248-9.248 17.81-13.195 26.484-12.534 8.568 0.649 16.956 5.824 25.985 14.854 0.05 0.05 0.094 0.094 0.137 0.143l29.278 29.615h43.508c13.071 0 21.919 3.268 27.594 9.871 5.6 6.517 7.864 16.101 7.864 28.867 0 0.081-0.006 0.156-0.012 0.23l-0.225 39.742 28.43 28.112 0.006-0.006c9.03 9.03 14.206 17.411 14.854 25.985 0.661 8.674-3.293 17.236-12.534 26.484l-30.768 30.768 0.237 41.843h0.012c0 12.765-2.27 22.35-7.864 28.867-5.675 6.604-14.524 9.872-27.594 9.871h-45.366l-32.078 32.078c-9.248 9.248-17.81 13.195-26.484 12.534-8.568-0.649-16.956-5.824-25.985-14.854l0.006-0.006-29.421-29.758h-43.509c-13.071 0-21.919-3.268-27.594-9.872-5.6-6.517-7.864-16.101-7.863-28.866h0.012l0.231-39.972-28.293-27.969c-0.05-0.044-0.1-0.087-0.143-0.137-9.03-9.03-14.206-17.411-14.854-25.985-0.661-8.674 3.293-17.236 12.534-26.484l30.768-30.768-0.237-41.607c-0.006-0.075-0.012-0.156-0.012-0.23 0-12.765 2.27-22.35 7.864-28.867 5.675-6.604 14.524-9.872 27.594-9.871zM87.682 179.997l-0.274-47.724-27.276 27.276c-8.138 8.138-11.636 15.44-11.094 22.587 0.549 7.246 5.226 14.642 13.413 22.823 0.037 0.037 0.081 0.081 0.113 0.125l24.837 24.551 0.281-49.644zM92.303 241.483l-0.2 35.09h0.013c0 11.58 1.921 20.117 6.66 25.63 4.664 5.432 12.297 8.113 23.815 8.113h38.576l-33.55-33.936-35.308-34.903zM325.415 49.672h-38.575l33.549 33.936 35.308 34.902 0.2-34.884c-0.006-0.069-0.006-0.137-0.007-0.205 0-11.58-1.921-20.117-6.66-25.63-4.664-5.432-12.297-8.113-23.815-8.113zM360.599 130.352l-0.281 49.645 0.274 47.724 27.276-27.276c8.138-8.138 11.636-15.44 11.094-22.587-0.549-7.252-5.226-14.642-13.413-22.824l0.006-0.006-24.956-24.669z" fill="#000000" fill-rule="nonzero" stroke="none" stroke-width="1" stroke-linecap="butt" stroke-linejoin="miter" stroke-miterlimit="10" stroke-dasharray="" stroke-dashoffset="0" font-family="none" font-weight="none" font-size="none" text-anchor="none" style="mix-blend-mode: normal" data-fill-palette-color="tertiary"></path></g><g transform="matrix(1,0,0,1,150.27205768467394,90)"><svg viewBox="0 0 147.45588463065212 180" height="180" width="147.45588463065212"><g><svg viewBox="0 0 224 273.43771393724734" height="180" width="147.45588463065212"><g transform="matrix(1,0,0,1,0,153.68046466833493)"><svg viewBox="0 0 224 119.75724926891242" height="119.75724926891242" width="224"><g><svg viewBox="0 0 224 119.75724926891242" height="119.75724926891242" width="224"><g><svg viewBox="0 0 224 64.59133782483157" height="64.59133782483157" width="224"><g transform="matrix(1,0,0,1,0,0)"><svg width="224" viewBox="0.5099999904632568 -36.11000061035156 126.81999969482422 36.56999969482422" height="64.59133782483157" data-palette-color="#ffffff"><path d="M13.45-1Q12.82 0.27 11.77 0.27 10.72 0.27 10.72-0.81L10.72-0.81Q10.72-1.46 11.35-2.25L11.35-2.25Q12.62-3.76 13.77-5.74L13.77-5.74 15.01-7.96 0.51-34.55 14.75-34.55 21.73-19.82 27.98-30.93Q28.66-32.2 29.15-33.51 29.64-34.81 30.44-34.81L30.44-34.81Q31.45-34.81 31.45-33.81L31.45-33.81Q31.45-33.23 31.01-32.47L31.01-32.47 14.31-2.69Q14.04-2.2 13.87-1.88L13.87-1.88 13.45-1ZM51.29-4.41Q48.87-6.76 47.44-10.12 46.02-13.48 46.02-17.44 46.02-21.41 47.37-24.57 48.73-27.73 51.12-30.05L51.12-30.05Q56.25-34.99 63.98-34.99L63.98-34.99Q71.67-34.99 76.58-30.13L76.58-30.13Q81.56-25.2 81.56-17.33L81.56-17.33Q81.56-9.5 76.46-4.44L76.46-4.44Q73.26-1.32 68.6-0.12L68.6-0.12Q66.28 0.46 63.22 0.46 60.15 0.46 56.93-0.79 53.71-2.05 51.29-4.41ZM63.96-33.2L63.96-33.2Q62.62-33.2 61.45-33.01L61.45-33.01 61.45-1.51Q62.57-1.32 63.96-1.32L63.96-1.32Q70.48-1.32 74.95-5.66L74.95-5.66Q79.61-10.18 79.61-17.33L79.61-17.33Q79.61-24.15 75.24-28.66L75.24-28.66Q70.82-33.2 63.96-33.2ZM112.59-4.35L105.75-4.35Q101.28-4.35 99.65-4.42L99.65-4.42 98.94-2.73Q98.62-2.03 98.35-1.25L98.35-1.25Q97.79 0.27 96.79 0.27L96.79 0.27Q96.33 0.27 96.03-0.02 95.74-0.32 95.74-0.63L95.74-0.63Q95.74-1.17 96.21-1.83L96.21-1.83Q96.94-2.86 97.65-4.52L97.65-4.52Q95.55-4.71 95.55-5.74 95.55-6.76 96.74-6.76L96.74-6.76Q97.48-6.76 98.45-6.52L98.45-6.52 110.63-36.11 127.33 0 114.61 0 112.59-4.35ZM105.68-19.29L100.43-6.32Q102.77-6.13 104.63-6.13L104.63-6.13 111.78-6.13 105.68-19.29Z" opacity="1" transform="matrix(1,0,0,1,0,0)" fill="#000000" class="undefined-text-0" data-fill-palette-color="primary" id="text-0"></path></svg></g></svg></g><g transform="matrix(1,0,0,1,76.08411769193341,79.8398024931665)"><svg viewBox="0 0 71.83176461613317 39.91744677574591" height="39.91744677574591" width="71.83176461613317"><g transform="matrix(1,0,0,1,0,0)"><svg width="71.83176461613317" viewBox="0 -38.22999954223633 71.43000030517578 39.689998626708984" height="39.91744677574591" data-palette-color="#eee997"><path d="M25.88-25.29L25.88-25.29 29.15-24.85Q28.22-21 26.22-13.11 24.22-5.22 23.1-0.29L23.1-0.29Q21.19 0.05 19.82 0.05L19.82 0.05Q18.6 0.05 17.58-0.15L17.58-0.15 14.84-9.72 12.5-0.1Q10.6 0.24 9.18 0.24L9.18 0.24Q8.01 0.24 6.98 0.05L6.98 0.05Q6.25-2.49 4.66-7.98 3.08-13.48 1.98-17.53 0.88-21.58 0-25.29L0-25.29 3.22-25.05 9.57-4.74Q11.18-9.42 12.94-16.31L12.94-16.31Q11.43-21.92 10.6-25.49L10.6-25.49 13.82-25.24 20.17-4.93Q20.95-7.28 21.83-10.21 22.71-13.13 23.24-15.21 23.78-17.29 24.66-20.63 25.54-23.97 25.88-25.29ZM50.78-4.74L50.78-4.74 51.27-2.59Q49.12-1.81 44.89-0.85 40.67 0.1 38.62 0.1L38.62 0.1Q36.52 0.1 34.96-1.29 33.4-2.69 32.61-4.86 31.83-7.03 31.47-9.16 31.1-11.28 31.1-13.33L31.1-13.33Q31.1-25.54 42.14-25.54L42.14-25.54Q44.77-25.54 46.77-23.85 48.78-22.17 48.78-19.48L48.78-19.48Q48.78-18.02 47.97-16.89 47.17-15.77 46.02-15.11 44.87-14.45 43.09-13.92 41.31-13.38 39.94-13.13 38.57-12.89 36.67-12.6 34.76-12.3 34.03-12.16L34.03-12.16Q34.08-10.74 34.2-9.67 34.32-8.59 34.69-7.35 35.06-6.1 35.67-5.3 36.28-4.49 37.35-3.96 38.43-3.42 39.89-3.42L39.89-3.42Q41.65-3.42 44.19-3.74 46.73-4.05 48.7-4.39 50.68-4.74 50.78-4.74ZM34.23-15.19L34.23-15.19Q40.87-17.09 45.11-19.19L45.11-19.19Q44.77-20.8 44.19-21.53 43.6-22.27 42.43-22.27L42.43-22.27Q39.45-22.27 37.03-20.21 34.62-18.16 34.23-15.19ZM56.54 0.93L56.54 0.93 53.8 1.46 53.22-37.11Q54.58-37.79 56.93-38.23L56.93-38.23Q56.88-37.11 56.88-34.72L56.88-34.72Q56.88-29.44 57.27-24.27L57.27-24.27Q59.61-25.59 62.25-25.59L62.25-25.59Q64.99-25.59 66.89-24.29 68.79-23 69.72-20.75 70.65-18.51 71.04-16.21 71.43-13.92 71.43-11.23L71.43-11.23Q71.43-8.3 70.53-5.59 69.62-2.88 67.4-0.85 65.18 1.17 62.01 1.17L62.01 1.17Q59.27 1.17 56.59-0.54L56.59-0.54Q56.54-0.05 56.54 0.93ZM57.12-19.48L57.12-19.48 56.98-3.76Q57.27-2.88 58.81-2.37 60.35-1.86 62.15-1.86L62.15-1.86Q63.86-1.86 65.01-2.51 66.16-3.17 66.74-4.42 67.33-5.66 67.55-7.03 67.77-8.4 67.77-10.16L67.77-10.16Q67.77-11.96 67.57-13.7 67.38-15.43 66.79-17.5 66.21-19.58 64.89-20.85 63.57-22.12 61.62-22.12L61.62-22.12Q60.2-22.12 58.95-21.41 57.71-20.7 57.12-19.48Z" opacity="1" transform="matrix(1,0,0,1,0,0)" fill="#000000" class="undefined-text-1" data-fill-palette-color="secondary" id="text-1"></path></svg></g></svg></g></svg></g></svg></g><g transform="matrix(1,0,0,1,42.784000000000006,0)"><svg viewBox="0 0 138.432 138.432" height="138.432" width="138.432"><g><svg></svg></g><g id="icon-0"><svg viewBox="0 0 138.432 138.432" height="138.432" width="138.432"><g><path xmlns="http://www.w3.org/2000/svg" d="M41.53 138.432c-22.936 0-41.53-18.593-41.53-41.53v-55.372c0-22.936 18.593-41.53 41.53-41.53h55.372c22.936 0 41.53 18.593 41.53 41.53v55.372c0 22.936-18.593 41.53-41.53 41.53z" fill="#000000" fill-rule="nonzero" stroke="none" stroke-width="1" stroke-linecap="butt" stroke-linejoin="miter" stroke-miterlimit="10" stroke-dasharray="" stroke-dashoffset="0" font-family="none" font-weight="none" font-size="none" text-anchor="none" style="mix-blend-mode: normal" data-fill-palette-color="accent"></path></g><g transform="matrix(1,0,0,1,47.75904,53.20842666666666)"><svg viewBox="0 0 42.91392 32.015146666666666" height="32.015146666666666" width="42.91392"><g><svg xmlns:dc="http://purl.org/dc/elements/1.1/" xmlns:cc="http://creativecommons.org/ns#" xmlns:rdf="http://www.w3.org/1999/02/22-rdf-syntax-ns#" xmlns:svg="http://www.w3.org/2000/svg" xmlns="http://www.w3.org/2000/svg" xmlns:sodipodi="http://sodipodi.sourceforge.net/DTD/sodipodi-0.dtd" xmlns:inkscape="http://www.inkscape.org/namespaces/inkscape" preserveAspectRatio="xMidYMid" viewBox="0 0 63 47" version="1.1" x="0" y="0" height="32.015146666666666" width="42.91392" class="icon-s-0" data-fill-palette-color="quaternary" id="s-0"><path d="M9.5 0C4.253 0 0 4.253 0 9.5L0 37.5C0 42.747 4.253 47 9.5 47L53.5 47C58.747 47 63 42.747 63 37.5L63 9.5C63 4.253 58.747 0 53.5 0L9.5 0zM9.5 3L53.5 3C57.09 3 60 5.91 60 9.5L60 14 3 14 3 9.5C3 5.91 5.91 3 9.5 3zM12.75 6C11.187 6 9.906 7.281 9.906 8.844 9.906 10.407 11.187 11.656 12.75 11.656 14.313 11.656 15.594 10.407 15.594 8.844 15.594 7.281 14.313 6 12.75 6zM22.938 6C21.375 6 20.125 7.281 20.125 8.844 20.125 10.407 21.375 11.656 22.938 11.656 24.5 11.656 25.781 10.407 25.781 8.844 25.781 7.281 24.5 6 22.938 6zM32 6C30.437 6 29.156 7.281 29.156 8.844 29.156 10.407 30.437 11.656 32 11.656 33.562 11.656 34.813 10.407 34.813 8.844 34.813 7.281 33.562 6 32 6zM3 17L60 17 60 37.5C60 41.09 57.09 44 53.5 44L9.5 44C5.91 44 3 41.09 3 37.5L3 17zM17.969 23C17.523 23.05 17.122 23.294 16.875 23.688L8.656 36.688C8.214 37.388 8.424 38.34 9.125 38.781 9.373 38.939 9.632 39 9.906 39 10.403 39 10.902 38.764 11.188 38.313L17.344 28.563 18.625 35.781C18.707 36.236 18.997 36.628 19.406 36.844 19.813 37.059 20.297 37.063 20.719 36.875L25.625 34.688 31.438 38.719C31.787 38.964 32.21 39.064 32.625 38.969 33.04 38.87 33.389 38.594 33.594 38.219L39.719 26.938 51.594 38.563C52.184 39.141 53.139 39.154 53.719 38.563 54.299 37.971 54.312 37.017 53.719 36.438L40.406 23.406C40.07 23.078 39.592 22.936 39.125 23 38.66 23.07 38.256 23.336 38.031 23.75L31.75 35.313 26.625 31.75C26.192 31.449 25.637 31.381 25.156 31.594L21.25 33.375 19.594 24.219C19.485 23.609 19.013 23.119 18.406 23 18.254 22.971 18.117 22.983 17.969 23z" fill="#ffffff" fill-rule="evenodd" data-fill-palette-color="quaternary"></path></svg></g></svg></g></svg></g></svg></g><g></g></svg></g></svg></g></svg></g><defs></defs></svg><rect width="448" height="360" fill="none" stroke="none" visibility="hidden"></rect></g></svg></g></svg>